<svg xmlns="http://www.w3.org/2000/svg" viewBox="0 0 300 180" width="300" height="180" role="img" aria-label="Prompting">
  <defs>
    <linearGradient id="bg" x1="0" y1="0" x2="1" y2="1">
      <stop offset="0" stop-color="#073650"/>
      <stop offset="1" stop-color="#021a28"/>
    </linearGradient>
    <radialGradient id="glow" cx="0.2" cy="0.18" r="0.9">
      <stop offset="0" stop-color="#2FB37E" stop-opacity="0.55"/>
      <stop offset="1" stop-color="#2FB37E" stop-opacity="0"/>
    </radialGradient>
  </defs>
  <rect width="300" height="180" fill="url(#bg)"/>
  <rect width="300" height="180" fill="url(#glow)"/>
  <path d="M70 52 h160 a14 14 0 0 1 14 14 v44 a14 14 0 0 1 -14 14 h-120 l-22 20 v-20 h-18 a14 14 0 0 1 -14 -14 v-44 a14 14 0 0 1 14 -14 z"
        fill="#ffffff" fill-opacity="0.06" stroke="#ffffff" stroke-opacity="0.45" stroke-width="1.6"/>
  <path d="M92 74 l16 14 l-16 14" fill="none" stroke="#2FB37E" stroke-width="4" stroke-linecap="round" stroke-linejoin="round"/>
  <line x1="120" y1="102" x2="150" y2="102" stroke="#ffffff" stroke-opacity="0.8" stroke-width="4" stroke-linecap="round"/>
  <g stroke="#ffffff" stroke-opacity="0.4" stroke-width="3" stroke-linecap="round">
    <line x1="165" y1="80" x2="220" y2="80"/>
    <line x1="165" y1="96" x2="210" y2="96"/>
  </g>
</svg>
